<svg xmlns="http://www.w3.org/2000/svg" viewBox="0 0 516.39 66.119">
    <g id="Group_36" data-name="Group 36" transform="translate(519.794 984.787)">
        <g id="Group_33" data-name="Group 33">
        <path id="Path_87" data-name="Path 87" d="M-433.16-935.042v-34.027h8.885c6.391,0,9.5,3.18,9.5,9.723v14.58c0,6.543-3.107,9.724-9.5,9.724Zm3.381-3.35h5.505c3.716,0,6.117-2.263,6.117-5.766v-15.795c0-3.5-2.4-5.767-6.117-5.767h-5.505Z" fill="#fff"/>
        <g id="Group_32" data-name="Group 32">
            <path id="Path_88" data-name="Path 88" d="M-407.235-958.974l3.082,13.389c.433,1.831.674,3.372.963,4.817h.1c.241-1.3.626-3.083,1.012-4.768l2.745-13.438h3.66l-3.8,14.979c-1.445,5.876-3.035,11.51-5.78,15.026a12.8,12.8,0,0,1-4.19,3.564l-1.348-3.178a11.278,11.278,0,0,0,3.274-2.938,14.271,14.271,0,0,0,2.12-3.9,3.275,3.275,0,0,0,.241-1.156,2.65,2.65,0,0,0-.1-.867l-5.876-21.529Z" fill="#fff"/>
            <path id="Path_89" data-name="Path 89" d="M-392.5-952.953c0-2.746-.145-4.142-.193-6.021h3.227l.193,2.794h.1a5.917,5.917,0,0,1,5.346-3.179c3.227,0,5.635,2.408,5.635,8.043v15.653H-381.9V-950.69c0-2.745-.529-5.538-3.227-5.538-1.541,0-3.034,1.3-3.515,3.8a13,13,0,0,0-.145,2.071v14.69H-392.5Z" fill="#fff"/>
            <path id="Path_90" data-name="Path 90" d="M-363.794-935.663l-.241-2.456h-.144a5.231,5.231,0,0,1-4.624,2.841c-3.13,0-5.538-2.649-5.538-6.646,0-5.828,4.672-8.429,9.921-8.477v-.722c0-3.131-.77-5.3-3.708-5.3a7.021,7.021,0,0,0-3.853,1.2l-.819-2.6a10.035,10.035,0,0,1,5.442-1.541c4.672,0,6.7,3.083,6.7,8.332v10.066a36.92,36.92,0,0,0,.241,5.3Zm-.53-12.041c-1.926,0-6.4.337-6.4,5.394,0,3.035,1.541,4.142,2.842,4.142,1.637,0,3.034-1.2,3.467-3.515a6.163,6.163,0,0,0,.1-1.3Z" fill="#fff"/>
            <path id="Path_91" data-name="Path 91" d="M-355.462-952.953c0-2.746-.144-4.142-.192-6.021h3.227l.192,2.89h.1a5.849,5.849,0,0,1,5.249-3.275,4.859,4.859,0,0,1,4.864,3.564h.1a7.407,7.407,0,0,1,2.312-2.649,5.625,5.625,0,0,1,3.226-.915c3.131,0,5.587,2.312,5.587,8.236v15.46h-3.66v-14.593c0-3.034-.434-5.972-3.275-5.972-1.541,0-2.89,1.3-3.42,3.467a14.232,14.232,0,0,0-.144,2.119v14.979h-3.66v-15.268c0-2.6-.482-5.3-3.227-5.3-1.493,0-3.035,1.3-3.468,3.756a13.374,13.374,0,0,0-.144,2.023v14.786h-3.661Z" fill="#fff"/>
            <path id="Path_92" data-name="Path 92" d="M-326.228-939.516a7.378,7.378,0,0,0,3.757,1.2,3.15,3.15,0,0,0,3.419-3.371c0-1.782-.625-2.986-2.985-4.576-3.035-1.974-4.672-3.949-4.672-6.646a6.266,6.266,0,0,1,6.405-6.454,8.02,8.02,0,0,1,4.191,1.2l-1.012,2.794a5.478,5.478,0,0,0-3.082-1.012,2.854,2.854,0,0,0-3.034,2.938c0,1.589.577,2.456,2.889,4.046,2.7,1.733,4.816,3.853,4.816,7.079,0,4.672-3.178,6.936-6.983,6.936a7.965,7.965,0,0,1-4.623-1.349Z" fill="#fff"/>
            <path id="Path_93" data-name="Path 93" d="M-297.379-947.318c0,9.006-4.19,12.04-7.754,12.04-4.19,0-7.562-3.8-7.562-11.992,0-8.525,3.8-12.089,7.8-12.089C-300.751-959.359-297.379-955.458-297.379-947.318Zm-11.607,0c0,3.853.674,9.1,4.046,9.1,3.178,0,3.8-5.49,3.8-9.1,0-3.564-.626-9.055-3.9-9.055C-308.36-956.373-308.986-950.882-308.986-947.318Z" fill="#fff"/>
            <path id="Path_94" data-name="Path 94" d="M-292.467-935.663v-20.469H-295.4v-2.842h2.938v-1.4c0-2.505.385-5.106,2.071-7.032a6.307,6.307,0,0,1,4.672-1.975,6.507,6.507,0,0,1,2.89.578l-.627,2.89a4.812,4.812,0,0,0-2.022-.385c-2.649,0-3.275,2.841-3.275,5.876v1.444h4.238v2.842h-4.238v20.469Z" fill="#fff"/>
            <path id="Path_95" data-name="Path 95" d="M-277.489-965.138v6.164h4.479v2.842h-4.479v13.822c0,3.035,1.108,3.853,2.456,3.853a6.832,6.832,0,0,0,1.493-.144l.145,2.841a8.113,8.113,0,0,1-2.745.386,4.722,4.722,0,0,1-3.66-1.4c-.916-1.06-1.4-2.649-1.4-5.876v-13.485h-2.842v-2.842h2.842v-5.1Z" fill="#fff"/>
            <path id="Path_96" data-name="Path 96" d="M-261.885-968.124h3.709v29.33h9.15v3.131h-12.859Z" fill="#fff"/>
            <path id="Path_97" data-name="Path 97" d="M-236.552-935.663l-.241-2.456h-.144a5.231,5.231,0,0,1-4.623,2.841c-3.131,0-5.539-2.649-5.539-6.646,0-5.828,4.672-8.429,9.921-8.477v-.722c0-3.131-.77-5.3-3.708-5.3a7.024,7.024,0,0,0-3.853,1.2l-.819-2.6a10.035,10.035,0,0,1,5.442-1.541c4.672,0,6.695,3.083,6.695,8.332v10.066a36.917,36.917,0,0,0,.241,5.3Zm-.53-12.041c-1.926,0-6.4.337-6.4,5.394,0,3.035,1.541,4.142,2.841,4.142,1.638,0,3.035-1.2,3.468-3.515a6.164,6.164,0,0,0,.1-1.3Z" fill="#fff"/>
            <path id="Path_98" data-name="Path 98" d="M-228.46-935.663c.048-1.349.193-4,.193-5.587v-27.741h3.708v12.763h.1a5.206,5.206,0,0,1,4.913-3.131c3.612,0,6.357,4.19,6.357,11.8,0,8.428-3.468,12.281-7.08,12.281-2.456,0-3.708-1.445-4.623-3.419h-.145l-.241,3.034Zm3.9-8.236a4.468,4.468,0,0,0,.144,1.445c.867,3.468,2.457,4.094,3.468,4.094,2.986,0,4.046-4.046,4.046-9.007,0-4.671-1.108-8.813-4.094-8.813-1.734,0-3.179,2.167-3.468,4.142a9.37,9.37,0,0,0-.1,1.637Z" fill="#fff"/>
            <path id="Path_99" data-name="Path 99" d="M-206.4-946.981c.048,7.128,2.842,8.669,5.539,8.669a7.836,7.836,0,0,0,3.853-.915l.578,2.745a11.244,11.244,0,0,1-5.1,1.108c-5.587,0-8.477-4.576-8.477-11.7,0-7.561,3.179-12.281,7.85-12.281,4.769,0,6.647,5.009,6.647,10.307,0,.867,0,1.493-.048,2.071Zm7.321-2.745c.1-4.672-1.686-6.743-3.468-6.743-2.408,0-3.66,3.564-3.8,6.743Z" fill="#fff"/>
            <path id="Path_100" data-name="Path 100" d="M-191.521-968.991h3.709v33.328h-3.709Z" fill="#fff"/>
            <path id="Path_101" data-name="Path 101" d="M-174.472-967.643a21.154,21.154,0,0,1,5.346-.626c3.227,0,5.635.674,7.321,2.312a8.742,8.742,0,0,1,2.263,6.357,8.466,8.466,0,0,1-5.2,8.332v.1c2.408.722,3.66,3.034,4.382,7.272a45.82,45.82,0,0,0,1.831,8.236h-3.757a41.985,41.985,0,0,1-1.734-8.043c-.722-4.431-2.119-6.117-5.3-6.117h-1.444v14.16h-3.709Zm3.709,14.979h1.541c3.564,0,5.924-2.6,5.924-6.5,0-3.757-1.542-6.069-5.539-6.117a7.393,7.393,0,0,0-1.926.193Z" fill="#fff"/>
            <path id="Path_102" data-name="Path 102" d="M-152.462-946.981c.048,7.128,2.841,8.669,5.538,8.669a7.833,7.833,0,0,0,3.853-.915l.578,2.745a11.244,11.244,0,0,1-5.105,1.108c-5.587,0-8.476-4.576-8.476-11.7,0-7.561,3.178-12.281,7.85-12.281,4.768,0,6.646,5.009,6.646,10.307,0,.867,0,1.493-.048,2.071Zm7.32-2.745c.1-4.672-1.685-6.743-3.467-6.743-2.408,0-3.661,3.564-3.805,6.743Z" fill="#fff"/>
            <path id="Path_103" data-name="Path 103" d="M-126.214-936.241a8,8,0,0,1-3.853.867c-5.1,0-8.525-4.094-8.525-11.8,0-6.694,3.372-12.137,9.2-12.137a7.486,7.486,0,0,1,3.275.723l-.722,3.034a6.05,6.05,0,0,0-2.649-.626c-3.709,0-5.394,4.431-5.394,9.006,0,5.442,2.07,8.717,5.49,8.717a6.326,6.326,0,0,0,2.7-.626Z" fill="#fff"/>
            <path id="Path_104" data-name="Path 104" d="M-109.021-947.318c0,9.006-4.19,12.04-7.754,12.04-4.19,0-7.561-3.8-7.561-11.992,0-8.525,3.805-12.089,7.8-12.089C-112.392-959.359-109.021-955.458-109.021-947.318Zm-11.607,0c0,3.853.675,9.1,4.046,9.1,3.179,0,3.805-5.49,3.805-9.1,0-3.564-.626-9.055-3.9-9.055C-120-956.373-120.628-950.882-120.628-947.318Z" fill="#fff"/>
            <path id="Path_105" data-name="Path 105" d="M-90.623-958.974c-.048,1.638-.193,3.709-.193,7.273v13.052c0,6.116-.77,8.428-2.312,10.114a8.109,8.109,0,0,1-6.212,2.5,11.1,11.1,0,0,1-5.105-1.156l.866-2.889a9.562,9.562,0,0,0,4.335,1.011c2.938,0,4.768-1.83,4.768-7.128v-2.36h-.1a4.74,4.74,0,0,1-4.479,2.842c-4.142,0-6.839-4.672-6.839-11.511,0-8.573,3.9-12.137,7.32-12.137a4.632,4.632,0,0,1,4.335,3.034h.1l.193-2.649Zm-3.853,8.043a6.209,6.209,0,0,0-.193-1.685c-.433-1.59-1.252-3.564-3.371-3.564-2.7,0-4.142,3.612-4.142,8.765,0,5.972,1.878,8.669,4.142,8.669,1.108,0,2.553-.529,3.323-3.323a8.167,8.167,0,0,0,.241-2.119Z" fill="#fff"/>
            <path id="Path_106" data-name="Path 106" d="M-85.663-952.953c0-2.746-.144-4.142-.192-6.021h3.226l.193,2.794h.1a5.915,5.915,0,0,1,5.345-3.179c3.227,0,5.635,2.408,5.635,8.043v15.653h-3.708V-950.69c0-2.745-.53-5.538-3.227-5.538-1.541,0-3.034,1.3-3.516,3.8a13.131,13.131,0,0,0-.144,2.071v14.69h-3.709Z" fill="#fff"/>
            <path id="Path_107" data-name="Path 107" d="M-62.16-964.994a2.165,2.165,0,0,1-2.263,2.408,2.188,2.188,0,0,1-2.119-2.408,2.223,2.223,0,0,1,2.167-2.408A2.179,2.179,0,0,1-62.16-964.994Zm-4,29.331v-23.311h3.708v23.311Z" fill="#fff"/>
            <path id="Path_108" data-name="Path 108" d="M-52.769-965.138v6.164h4.479v2.842h-4.479v13.822c0,3.035,1.108,3.853,2.456,3.853a6.832,6.832,0,0,0,1.493-.144l.145,2.841a8.113,8.113,0,0,1-2.745.386,4.722,4.722,0,0,1-3.66-1.4c-.916-1.06-1.4-2.649-1.4-5.876v-13.485h-2.842v-2.842h2.842v-5.1Z" fill="#fff"/>
            <path id="Path_109" data-name="Path 109" d="M-41.017-964.994a2.166,2.166,0,0,1-2.264,2.408,2.188,2.188,0,0,1-2.119-2.408,2.223,2.223,0,0,1,2.167-2.408A2.18,2.18,0,0,1-41.017-964.994Zm-4,29.331v-23.311h3.709v23.311Z" fill="#fff"/>
            <path id="Path_110" data-name="Path 110" d="M-21.85-947.318c0,9.006-4.19,12.04-7.754,12.04-4.19,0-7.561-3.8-7.561-11.992,0-8.525,3.805-12.089,7.8-12.089C-25.221-959.359-21.85-955.458-21.85-947.318Zm-11.606,0c0,3.853.674,9.1,4.045,9.1,3.179,0,3.8-5.49,3.8-9.1,0-3.564-.626-9.055-3.9-9.055C-32.83-956.373-33.456-950.882-33.456-947.318Z" fill="#fff"/>
            <path id="Path_111" data-name="Path 111" d="M-17.708-952.953c0-2.746-.144-4.142-.192-6.021h3.226l.193,2.794h.1a5.918,5.918,0,0,1,5.346-3.179c3.227,0,5.635,2.408,5.635,8.043v15.653H-7.112V-950.69c0-2.745-.53-5.538-3.227-5.538-1.541,0-3.034,1.3-3.516,3.8A13.131,13.131,0,0,0-14-950.353v14.69h-3.709Z" fill="#fff"/>
        </g>
        </g>
        <g id="Group_35" data-name="Group 35">
        <g id="Rectangle_1784" data-name="Rectangle 1784" transform="translate(-519.794 -984.787)" fill="#fff" stroke="#d6d5d5" stroke-miterlimit="10" stroke-width="1">
            <rect width="66.119" height="66.119" rx="6.5" stroke="none"/>
            <rect x="0.5" y="0.5" width="65.119" height="65.119" rx="6" fill="none"/>
        </g>
        <g id="Group_34" data-name="Group 34">
            <path id="Path_112" data-name="Path 112" d="M-495.651-965.707h-7.8v27.96l7.8-.02c5.042,0,7.71-2.347,7.71-8.073v-11.773C-487.941-963.341-490.609-965.707-495.651-965.707Zm4.509,20.356c0,2.941-2.57,4.415-5.17,4.415h-3.939v-21.583h3.939c2.6,0,5.17,1.474,5.17,4.415Z" fill="#485058"/>
            <path id="Path_113" data-name="Path 113" d="M-470.757-954.3a4.127,4.127,0,0,0-3.544,2.745l-.037.005v-2.479a5.276,5.276,0,0,1-1.162.812,5.089,5.089,0,0,1-1.9.578v14.887h3.062v-8.591a6.829,6.829,0,0,1,.135-1.572,3.764,3.764,0,0,1,3.446-2.808,2.425,2.425,0,0,1,.741.067v-3.577A4.049,4.049,0,0,0-470.757-954.3Z" fill="#485058"/>
            <path id="Path_114" data-name="Path 114" d="M-480.952-940.7c-.782,0-1.236-.647-1.236-1.472v-19.108a4.4,4.4,0,0,1-1.076.724,5.227,5.227,0,0,1-2.127.538l-.012,18.582c0,2.415,1.182,3.68,3.709,3.68a5.677,5.677,0,0,0,1.731-.269V-940.7Z" fill="#485058"/>
        </g>
        </g>
    </g>
</svg>