<svg xmlns="http://www.w3.org/2000/svg" width="26.999" height="26.999" viewBox="0 0 26.999 26.999">
  <g id="Programming-Apps-Websites_Apps_app-window-four" data-name="Programming-Apps-Websites / Apps / app-window-four" transform="translate(-412.89 -1846.997)">
    <g id="Group_200" data-name="Group 200" transform="translate(413.39 1847.497)">
      <g id="app-window-four">
        <path id="Rectangle-path_120" data-name="Rectangle-path 120" d="M413.39,1849.758a2.261,2.261,0,0,1,2.261-2.261h6.782a2.262,2.262,0,0,1,2.261,2.261v6.782a2.261,2.261,0,0,1-2.261,2.261h-6.782a2.26,2.26,0,0,1-2.261-2.261Z" transform="translate(-413.39 -1847.497)" fill="none" stroke="#fff" stroke-linecap="round" stroke-linejoin="round" stroke-width="1"/>
        <path id="Shape_1340" data-name="Shape 1340" d="M413.39,1850.5h11.3" transform="translate(-413.39 -1847.106)" fill="none" stroke="#fff" stroke-linecap="round" stroke-linejoin="round" stroke-width="1"/>
        <path id="Rectangle-path_121" data-name="Rectangle-path 121" d="M426.39,1849.758a2.261,2.261,0,0,1,2.261-2.261h6.782a2.262,2.262,0,0,1,2.261,2.261v6.782a2.261,2.261,0,0,1-2.261,2.261h-6.782a2.26,2.26,0,0,1-2.261-2.261Z" transform="translate(-411.695 -1847.497)" fill="none" stroke="#fff" stroke-linecap="round" stroke-linejoin="round" stroke-width="1"/>
        <path id="Shape_1341" data-name="Shape 1341" d="M437.694,1850.5h-11.3" transform="translate(-411.695 -1847.106)" fill="none" stroke="#fff" stroke-linecap="round" stroke-linejoin="round" stroke-width="1"/>
        <path id="Rectangle-path_122" data-name="Rectangle-path 122" d="M413.39,1862.758a2.261,2.261,0,0,1,2.261-2.261h6.782a2.262,2.262,0,0,1,2.261,2.261v6.782a2.261,2.261,0,0,1-2.261,2.261h-6.782a2.26,2.26,0,0,1-2.261-2.261Z" transform="translate(-413.39 -1845.802)" fill="none" stroke="#fff" stroke-linecap="round" stroke-linejoin="round" stroke-width="1"/>
        <path id="Shape_1342" data-name="Shape 1342" d="M413.39,1863.5h11.3" transform="translate(-413.39 -1845.411)" fill="none" stroke="#fff" stroke-linecap="round" stroke-linejoin="round" stroke-width="1"/>
        <path id="Rectangle-path_123" data-name="Rectangle-path 123" d="M426.39,1862.758a2.261,2.261,0,0,1,2.261-2.261h6.782a2.262,2.262,0,0,1,2.261,2.261v6.782a2.261,2.261,0,0,1-2.261,2.261h-6.782a2.26,2.26,0,0,1-2.261-2.261Z" transform="translate(-411.695 -1845.802)" fill="none" stroke="#fff" stroke-linecap="round" stroke-linejoin="round" stroke-width="1"/>
        <path id="Shape_1343" data-name="Shape 1343" d="M437.694,1863.5h-11.3" transform="translate(-411.695 -1845.411)" fill="none" stroke="#fff" stroke-linecap="round" stroke-linejoin="round" stroke-width="1"/>
      </g>
    </g>
  </g>
</svg>
