<svg xmlns="http://www.w3.org/2000/svg" width="724" height="408" viewBox="0 0 724 408">
  <g id="mrz" transform="translate(-262.864 -133.663)">
    <rect id="Rectangle_1781" data-name="Rectangle 1781" width="722" height="406" rx="10" transform="translate(263.864 133.663)" opacity="0.15"/>
    <g id="_Group_64" data-name=" Group  64" transform="translate(348.174 207.244)">
      <path id="Oval_509" data-name="Oval 509" d="M374.669,244.148a46.094,46.094,0,1,0-46.1-46.089A46.094,46.094,0,0,0,374.669,244.148Z" transform="translate(-282.481 -151.96)" fill="none" stroke="#fff" stroke-linecap="round" stroke-linejoin="round" stroke-width="2" stroke-dasharray="4"/>
      <path id="Shape_1255" data-name="Shape 1255" d="M508.016,235.643a95.138,95.138,0,0,0-184.376,0Z" transform="translate(-323.64 -51.333)" fill="none" stroke="#fff" stroke-linecap="round" stroke-linejoin="round" stroke-width="2" stroke-dasharray="4"/>
    </g>
    <path id="Shape_1252" data-name="Shape 1252" d="M359.469,177.08H620.658" transform="translate(242.413 206.046)" fill="none" stroke="#fff" stroke-linecap="round" stroke-linejoin="round" stroke-width="2" stroke-dasharray="4"/>
    <path id="Shape_1253" data-name="Shape 1253" d="M359.469,169.147H620.658" transform="translate(242.413 172.116)" fill="none" stroke="#fff" stroke-linecap="round" stroke-linejoin="round" stroke-width="2" stroke-dasharray="4"/>
    <path id="Shape_1254" data-name="Shape 1254" d="M359.469,153.214H490.063" transform="translate(242.413 103.968)" fill="none" stroke="#fff" stroke-linecap="round" stroke-linejoin="round" stroke-width="2" stroke-dasharray="4"/>
    <path id="Shape_1254-2" data-name="Shape 1254" d="M359.469,161.214H620.657" transform="translate(242.413 138.185)" fill="none" stroke="#fff" stroke-linecap="round" stroke-linejoin="round" stroke-width="2" stroke-dasharray="4"/>
    <g id="Group_58" data-name="Group 58" transform="translate(334.244 441.965)">
      <path id="Path_62" data-name="Path 62" d="M332.651,188.4l-12.733,7.25,12.811,6.189" transform="translate(-293.261 -188.4)" fill="none" stroke="#fff" stroke-miterlimit="10" stroke-width="2"/>
      <path id="Path_63" data-name="Path 63" d="M344.668,188.4l-12.733,7.25,12.811,6.189" transform="translate(-274.517 -188.4)" fill="none" stroke="#fff" stroke-miterlimit="10" stroke-width="2"/>
      <path id="Path_64" data-name="Path 64" d="M356.651,188.4l-12.733,7.25,12.811,6.189" transform="translate(-255.099 -188.4)" fill="none" stroke="#fff" stroke-miterlimit="10" stroke-width="2"/>
      <path id="Path_65" data-name="Path 65" d="M368.668,188.4l-12.733,7.25,12.811,6.189" transform="translate(-235.626 -188.4)" fill="none" stroke="#fff" stroke-miterlimit="10" stroke-width="2"/>
      <path id="Path_66" data-name="Path 66" d="M380.651,188.4l-12.733,7.25,12.811,6.189" transform="translate(-216.208 -188.4)" fill="none" stroke="#fff" stroke-miterlimit="10" stroke-width="2"/>
      <path id="Path_67" data-name="Path 67" d="M392.668,188.4l-12.733,7.25,12.811,6.189" transform="translate(-196.735 -188.4)" fill="none" stroke="#fff" stroke-miterlimit="10" stroke-width="2"/>
      <path id="Path_68" data-name="Path 68" d="M404.668,188.4l-12.733,7.25,12.811,6.189" transform="translate(-177.29 -188.4)" fill="none" stroke="#fff" stroke-miterlimit="10" stroke-width="2"/>
      <path id="Path_69" data-name="Path 69" d="M416.668,188.4l-12.733,7.25,12.811,6.189" transform="translate(-158.574 -188.4)" fill="none" stroke="#fff" stroke-miterlimit="10" stroke-width="2"/>
      <path id="Path_70" data-name="Path 70" d="M322.651,188.4l-12.733,7.25,12.811,6.189" transform="translate(-309.918 -188.4)" fill="none" stroke="#fff" stroke-miterlimit="10" stroke-width="2"/>
      <path id="Path_71" data-name="Path 71" d="M426.668,188.4l-12.733,7.25,12.811,6.189" transform="translate(-141.917 -188.4)" fill="none" stroke="#fff" stroke-miterlimit="10" stroke-width="2"/>
      <path id="Path_72" data-name="Path 72" d="M332.651,196.4l-12.733,7.25,12.811,6.189" transform="translate(-293.261 -175.456)" fill="none" stroke="#fff" stroke-miterlimit="10" stroke-width="2"/>
      <path id="Path_73" data-name="Path 73" d="M344.668,196.4l-12.733,7.25,12.811,6.189" transform="translate(-274.517 -175.456)" fill="none" stroke="#fff" stroke-miterlimit="10" stroke-width="2"/>
      <path id="Path_74" data-name="Path 74" d="M356.651,196.4l-12.733,7.25,12.811,6.189" transform="translate(-255.099 -175.456)" fill="none" stroke="#fff" stroke-miterlimit="10" stroke-width="2"/>
      <path id="Path_75" data-name="Path 75" d="M368.668,196.4l-12.733,7.25,12.811,6.189" transform="translate(-235.626 -175.456)" fill="none" stroke="#fff" stroke-miterlimit="10" stroke-width="2"/>
      <path id="Path_76" data-name="Path 76" d="M380.651,196.4l-12.733,7.25,12.811,6.189" transform="translate(-216.208 -175.456)" fill="none" stroke="#fff" stroke-miterlimit="10" stroke-width="2"/>
      <path id="Path_77" data-name="Path 77" d="M392.668,196.4l-12.733,7.25,12.811,6.189" transform="translate(-196.735 -175.456)" fill="none" stroke="#fff" stroke-miterlimit="10" stroke-width="2"/>
      <path id="Path_78" data-name="Path 78" d="M404.668,196.4l-12.733,7.25,12.811,6.189" transform="translate(-177.29 -175.456)" fill="none" stroke="#fff" stroke-miterlimit="10" stroke-width="2"/>
      <path id="Path_79" data-name="Path 79" d="M416.668,196.4l-12.733,7.25,12.811,6.189" transform="translate(-158.574 -175.456)" fill="none" stroke="#fff" stroke-miterlimit="10" stroke-width="2"/>
      <path id="Path_80" data-name="Path 80" d="M322.651,196.4l-12.733,7.25,12.811,6.189" transform="translate(-309.918 -175.456)" fill="none" stroke="#fff" stroke-miterlimit="10" stroke-width="2"/>
      <path id="Path_81" data-name="Path 81" d="M426.668,196.4l-12.733,7.25,12.811,6.189" transform="translate(-141.917 -175.456)" fill="none" stroke="#fff" stroke-miterlimit="10" stroke-width="2"/>
      <path id="Path_118" data-name="Path 118" d="M332.651,188.4l-12.733,7.25,12.811,6.189" transform="translate(5.413 -188.4)" fill="none" stroke="#fff" stroke-miterlimit="10" stroke-width="2"/>
      <path id="Path_119" data-name="Path 119" d="M344.668,188.4l-12.733,7.25,12.811,6.189" transform="translate(24.158 -188.4)" fill="none" stroke="#fff" stroke-miterlimit="10" stroke-width="2"/>
      <path id="Path_120" data-name="Path 120" d="M356.651,188.4l-12.733,7.25,12.811,6.189" transform="translate(43.575 -188.4)" fill="none" stroke="#fff" stroke-miterlimit="10" stroke-width="2"/>
      <path id="Path_121" data-name="Path 121" d="M368.668,188.4l-12.733,7.25,12.811,6.189" transform="translate(63.048 -188.4)" fill="none" stroke="#fff" stroke-miterlimit="10" stroke-width="2"/>
      <path id="Path_122" data-name="Path 122" d="M380.651,188.4l-12.733,7.25,12.811,6.189" transform="translate(82.466 -188.4)" fill="none" stroke="#fff" stroke-miterlimit="10" stroke-width="2"/>
      <path id="Path_123" data-name="Path 123" d="M392.668,188.4l-12.733,7.25,12.811,6.189" transform="translate(101.939 -188.4)" fill="none" stroke="#fff" stroke-miterlimit="10" stroke-width="2"/>
      <path id="Path_124" data-name="Path 124" d="M404.668,188.4l-12.733,7.25,12.811,6.189" transform="translate(121.385 -188.4)" fill="none" stroke="#fff" stroke-miterlimit="10" stroke-width="2"/>
      <path id="Path_125" data-name="Path 125" d="M416.668,188.4l-12.733,7.25,12.811,6.189" transform="translate(140.1 -188.4)" fill="none" stroke="#fff" stroke-miterlimit="10" stroke-width="2"/>
      <path id="Path_126" data-name="Path 126" d="M322.651,188.4l-12.733,7.25,12.811,6.189" transform="translate(-11.244 -188.4)" fill="none" stroke="#fff" stroke-miterlimit="10" stroke-width="2"/>
      <path id="Path_127" data-name="Path 127" d="M426.668,188.4l-12.733,7.25,12.811,6.189" transform="translate(156.757 -188.4)" fill="none" stroke="#fff" stroke-miterlimit="10" stroke-width="2"/>
      <path id="Path_128" data-name="Path 128" d="M332.651,196.4l-12.733,7.25,12.811,6.189" transform="translate(5.413 -175.456)" fill="none" stroke="#fff" stroke-miterlimit="10" stroke-width="2"/>
      <path id="Path_129" data-name="Path 129" d="M344.668,196.4l-12.733,7.25,12.811,6.189" transform="translate(24.158 -175.456)" fill="none" stroke="#fff" stroke-miterlimit="10" stroke-width="2"/>
      <path id="Path_130" data-name="Path 130" d="M356.651,196.4l-12.733,7.25,12.811,6.189" transform="translate(43.575 -175.456)" fill="none" stroke="#fff" stroke-miterlimit="10" stroke-width="2"/>
      <path id="Path_131" data-name="Path 131" d="M368.668,196.4l-12.733,7.25,12.811,6.189" transform="translate(63.048 -175.456)" fill="none" stroke="#fff" stroke-miterlimit="10" stroke-width="2"/>
      <path id="Path_132" data-name="Path 132" d="M380.651,196.4l-12.733,7.25,12.811,6.189" transform="translate(82.466 -175.456)" fill="none" stroke="#fff" stroke-miterlimit="10" stroke-width="2"/>
      <path id="Path_133" data-name="Path 133" d="M392.668,196.4l-12.733,7.25,12.811,6.189" transform="translate(101.939 -175.456)" fill="none" stroke="#fff" stroke-miterlimit="10" stroke-width="2"/>
      <path id="Path_134" data-name="Path 134" d="M404.668,196.4l-12.733,7.25,12.811,6.189" transform="translate(121.385 -175.456)" fill="none" stroke="#fff" stroke-miterlimit="10" stroke-width="2"/>
      <path id="Path_135" data-name="Path 135" d="M416.668,196.4l-12.733,7.25,12.811,6.189" transform="translate(140.1 -175.456)" fill="none" stroke="#fff" stroke-miterlimit="10" stroke-width="2"/>
      <path id="Path_136" data-name="Path 136" d="M322.651,196.4l-12.733,7.25,12.811,6.189" transform="translate(-11.244 -175.456)" fill="none" stroke="#fff" stroke-miterlimit="10" stroke-width="2"/>
      <path id="Path_137" data-name="Path 137" d="M426.668,196.4l-12.733,7.25,12.811,6.189" transform="translate(156.757 -175.456)" fill="none" stroke="#fff" stroke-miterlimit="10" stroke-width="2"/>
    </g>
    <rect id="Rectangle_2084" data-name="Rectangle 2084" width="722" height="406" rx="10" transform="translate(263.864 134.663)" fill="none" stroke="#fff" stroke-linecap="round" stroke-linejoin="round" stroke-width="2" stroke-dasharray="4"/>
  </g>
</svg>
