<svg xmlns="http://www.w3.org/2000/svg" width="100" height="50" viewBox="0 0 83 49">
    <g id="Group_30" data-name="Group 30" transform="translate(-303.312 -134.175)">
        <rect id="Rectangle_1781" data-name="Rectangle 1781" width="82" height="48" transform="translate(303.812 134.675)" fill="none" stroke="#fff" stroke-linecap="round" stroke-linejoin="round" stroke-width="1"/>
        <g id="_Group_64" data-name=" Group  64" transform="translate(317.2 146.39)">
        <path id="Oval_509" data-name="Oval 509" d="M331.965,158.75a3.4,3.4,0,1,0-3.4-3.395A3.4,3.4,0,0,0,331.965,158.75Z" transform="translate(-325.175 -151.96)" fill="none" stroke="#fff" stroke-linecap="round" stroke-linejoin="round" stroke-width="1"/>
        <path id="Shape_1255" data-name="Shape 1255" d="M337.22,169.289a7.008,7.008,0,0,0-13.58,0Z" transform="translate(-323.64 -155.713)" fill="none" stroke="#fff" stroke-linecap="round" stroke-linejoin="round" stroke-width="1"/>
        </g>
        <rect id="Rectangle_1782" data-name="Rectangle 1782" width="21.661" height="22.459" transform="translate(313.425 141.978)" fill="none" stroke="#fff" stroke-linecap="round" stroke-linejoin="round" stroke-width="1"/>
        <path id="Path_62" data-name="Path 62" d="M323.207,188.4l-3.289,1.873,3.309,1.6" transform="translate(-5.015 -17.181)" fill="none" stroke="#fff" stroke-miterlimit="10" stroke-width="1"/>
        <path id="Path_63" data-name="Path 63" d="M335.224,188.4l-3.289,1.873,3.309,1.6" transform="translate(-9.086 -17.181)" fill="none" stroke="#fff" stroke-miterlimit="10" stroke-width="1"/>
        <path id="Path_64" data-name="Path 64" d="M347.207,188.4l-3.289,1.873,3.309,1.6" transform="translate(-12.958 -17.181)" fill="none" stroke="#fff" stroke-miterlimit="10" stroke-width="1"/>
        <path id="Path_65" data-name="Path 65" d="M359.224,188.4l-3.289,1.873,3.309,1.6" transform="translate(-16.841 -17.181)" fill="none" stroke="#fff" stroke-miterlimit="10" stroke-width="1"/>
        <path id="Path_66" data-name="Path 66" d="M371.207,188.4l-3.289,1.873,3.309,1.6" transform="translate(-20.712 -17.181)" fill="none" stroke="#fff" stroke-miterlimit="10" stroke-width="1"/>
        <path id="Path_67" data-name="Path 67" d="M383.224,188.4l-3.289,1.873,3.309,1.6" transform="translate(-24.595 -17.181)" fill="none" stroke="#fff" stroke-miterlimit="10" stroke-width="1"/>
        <path id="Path_68" data-name="Path 68" d="M395.224,188.4l-3.289,1.873,3.309,1.6" transform="translate(-28.472 -17.181)" fill="none" stroke="#fff" stroke-miterlimit="10" stroke-width="1"/>
        <path id="Path_69" data-name="Path 69" d="M407.224,188.4l-3.289,1.873,3.309,1.6" transform="translate(-32.538 -17.181)" fill="none" stroke="#fff" stroke-miterlimit="10" stroke-width="1"/>
        <path id="Shape_1252" data-name="Shape 1252" d="M359.469,177.08h33.7" transform="translate(-18.691 -13.536)" fill="none" stroke="#fff" stroke-linecap="round" stroke-linejoin="round" stroke-width="1"/>
        <path id="Shape_1253" data-name="Shape 1253" d="M359.469,169.147h33.7" transform="translate(-18.691 -11.004)" fill="none" stroke="#fff" stroke-linecap="round" stroke-linejoin="round" stroke-width="1"/>
        <path id="Shape_1254" data-name="Shape 1254" d="M359.469,153.214h16.848" transform="translate(-18.115 -5.918)" fill="none" stroke="#fff" stroke-linecap="round" stroke-linejoin="round" stroke-width="1"/>
        <path id="Path_70" data-name="Path 70" d="M313.207,188.4l-3.289,1.873,3.309,1.6" transform="translate(-1.901 -17.181)" fill="none" stroke="#fff" stroke-miterlimit="10" stroke-width="1"/>
        <path id="Path_71" data-name="Path 71" d="M417.224,188.4l-3.289,1.873,3.309,1.6" transform="translate(-35.652 -17.181)" fill="none" stroke="#fff" stroke-miterlimit="10" stroke-width="1"/>
        <path id="Shape_1254-2" data-name="Shape 1254" d="M359.469,161.214h28.542" transform="translate(-18.282 -8.471)" fill="none" stroke="#fff" stroke-linecap="round" stroke-linejoin="round" stroke-width="1"/>
        <path id="Path_72" data-name="Path 72" d="M323.207,196.4l-3.289,1.873,3.309,1.6" transform="translate(-5.015 -19.771)" fill="none" stroke="#fff" stroke-miterlimit="10" stroke-width="1"/>
        <path id="Path_73" data-name="Path 73" d="M335.224,196.4l-3.289,1.873,3.309,1.6" transform="translate(-9.086 -19.771)" fill="none" stroke="#fff" stroke-miterlimit="10" stroke-width="1"/>
        <path id="Path_74" data-name="Path 74" d="M347.207,196.4l-3.289,1.873,3.309,1.6" transform="translate(-12.958 -19.771)" fill="none" stroke="#fff" stroke-miterlimit="10" stroke-width="1"/>
        <path id="Path_75" data-name="Path 75" d="M359.224,196.4l-3.289,1.873,3.309,1.6" transform="translate(-16.841 -19.771)" fill="none" stroke="#fff" stroke-miterlimit="10" stroke-width="1"/>
        <path id="Path_76" data-name="Path 76" d="M371.207,196.4l-3.289,1.873,3.309,1.6" transform="translate(-20.712 -19.771)" fill="none" stroke="#fff" stroke-miterlimit="10" stroke-width="1"/>
        <path id="Path_77" data-name="Path 77" d="M383.224,196.4l-3.289,1.873,3.309,1.6" transform="translate(-24.595 -19.771)" fill="none" stroke="#fff" stroke-miterlimit="10" stroke-width="1"/>
        <path id="Path_78" data-name="Path 78" d="M395.224,196.4l-3.289,1.873,3.309,1.6" transform="translate(-28.472 -19.771)" fill="none" stroke="#fff" stroke-miterlimit="10" stroke-width="1"/>
        <path id="Path_79" data-name="Path 79" d="M407.224,196.4l-3.289,1.873,3.309,1.6" transform="translate(-32.538 -19.771)" fill="none" stroke="#fff" stroke-miterlimit="10" stroke-width="1"/>
        <path id="Path_80" data-name="Path 80" d="M313.207,196.4l-3.289,1.873,3.309,1.6" transform="translate(-1.901 -19.771)" fill="none" stroke="#fff" stroke-miterlimit="10" stroke-width="1"/>
        <path id="Path_81" data-name="Path 81" d="M417.224,196.4l-3.289,1.873,3.309,1.6" transform="translate(-35.652 -19.771)" fill="none" stroke="#fff" stroke-miterlimit="10" stroke-width="1"/>
    </g>
</svg>